<svg xmlns="http://www.w3.org/2000/svg" width="85" height="37" fill="none"><g clip-path="url(#a)"><g clip-path="url(#b)"><path fill="#FEFEFD" d="m2.474 19.646-.002.193.002-.189v-.003Z"/><path fill="#010101" d="M15.857 10.228c.274-.014.57-.03.817.026.14.03.232.082.311.204.052.28.097.557.108.842.022.604.017 1.212.012 1.82-.003.274-.006.55-.006.824v5.23c0 .172.004.461.01.813.022 1.232.056 3.236-.054 3.678-.08.317-.242.462-.516.624-.245.031-.5.037-.754.043-.132.003-.265.005-.394.012-1.222.062-2.511.187-3.633.706-.3.139-.601.302-.865.503a5.992 5.992 0 0 0-.449.398c-.401.38-.866.82-1.303.844-.505.028-.984-.404-1.425-.803-.21-.19-.413-.37-.605-.492a6.856 6.856 0 0 0-1.515-.692c-.862-.282-1.776-.427-2.68-.48-.137-.01-.278-.008-.419-.008-.262.001-.528.002-.775-.053-.216-.047-.355-.157-.517-.3-.119-.282-.155-.63-.17-.935a27.218 27.218 0 0 1-.013-1.641c.003-.243.006-.486.006-.728l.004-4.626-.004-3.5c0-.154-.007-.32-.013-.491-.019-.465-.038-.972.063-1.368.056-.218.182-.315.364-.431 2.007-.13 4.199.287 5.962 1.268.586.325 1.113.724 1.647 1.127.3-.223.602-.447.91-.658 1.66-1.134 3.637-1.694 5.64-1.744.081-.002.168-.007.256-.012Zm-.231 1.572c-.243.002-.5-.014-.741.018-1.647.15-3.76.752-4.88 2.064a3.839 3.839 0 0 0-.136.173l-.003 10.3c.183-.133.364-.27.55-.399 1.539-.92 3.464-1.077 5.218-1.203 0-3.649.048-7.305-.008-10.953Zm-13.125.002c-.038 1.524-.03 3.054-.022 4.582.004.626.007 1.252.007 1.877 0 .459-.006.922-.011 1.385v.004c-.013 1.026-.026 2.058.025 3.073 2.026.174 4.061.374 5.749 1.613-.01-3.419.009-6.837.057-10.255-1.327-1.4-3.404-2.229-5.319-2.282a8.96 8.96 0 0 0-.486.003Z"/><path fill="#010101" d="m15.857 10.228.013.245-.013-.245Zm.817.026-.053.238.053-.238Zm.311.204.24-.044-.008-.048-.027-.042-.205.134Zm.108.842-.244.009.244-.01Zm.012 1.82.244.001-.244-.002Zm-.006 6.055h-.245.245Zm.01.812.245-.004-.245.004Zm-.054 3.678.237.06-.237-.06Zm-.516.624.03.242.05-.006.044-.025-.124-.211Zm-.754.043-.005-.244.005.244Zm-.394.012-.013-.244.013.244Zm-3.633.706.102.221-.102-.221Zm-.865.503.147.194-.147-.194Zm-.449.398-.168-.177.168.177Zm-1.303.844.013.244-.013-.244Zm-1.425-.803.163-.181-.163.181ZM7.11 25.5l.13-.207-.13.207Zm-1.515-.692.076-.233-.076.233Zm-2.68-.48-.015.243.015-.244Zm-.419-.008v-.244.244Zm-.775-.053-.053.239.053-.239Zm-.517-.3-.225.095.021.05.042.038.162-.183Zm-.17-.935.244-.012-.244.012Zm-.013-1.641-.244-.003.244.003Zm.006-.728H.784h.244Zm.004-4.626h.245-.245Zm-.004-3.5H.784h.244Zm-.013-.491-.245.01.245-.01Zm.063-1.368-.237-.06.237.06Zm.364-.431-.015-.244-.063.004-.053.034.131.206Zm5.962 1.268-.119.213.12-.213Zm1.647 1.127-.148.196.147.11.147-.11-.146-.195Zm.91-.658.139.202-.138-.202Zm5.64-1.744.006.244-.006-.244Zm.025 1.56.244-.004-.003-.243-.243.002.002.245Zm-.741.018.022.244.01-.002-.032-.242Zm-4.88 2.064-.185-.159v.001l.186.158Zm-.136.173-.195-.147-.05.065v.082h.245Zm-.003 10.3h-.244v.48l.388-.282-.144-.198Zm.55-.399-.125-.21-.008.005-.006.004.139.201Zm5.218-1.203.017.244.227-.017v-.227h-.244ZM2.5 11.802l-.008-.245-.23.008-.006.23.244.007Zm-.022 4.582-.244.001.244-.001Zm.007 1.877h-.244.244Zm-.011 1.385-.245-.003v.003h.245Zm0 .004.244.003v-.003h-.244Zm.025 3.073-.244.012.01.213.213.018.021-.243Zm5.749 1.613-.145.197.39.286v-.484h-.245Zm.057-10.255.244.003.001-.099-.068-.072-.177.168Zm-5.319-2.282.007-.244h-.001l-.006.244Zm12.87-1.57.013.244c.283-.016.542-.027.75.02l.054-.24.053-.238c-.287-.064-.617-.045-.883-.03l.013.243Zm.817.025-.053.238a.313.313 0 0 1 .1.036c.017.01.036.027.06.063l.204-.133.205-.134a.68.68 0 0 0-.463-.309l-.053.239Zm.311.204-.24.044c.051.279.094.54.104.807l.244-.01.244-.008a6.09 6.09 0 0 0-.111-.877l-.24.044Zm.108.842-.244.009c.022.597.017 1.2.011 1.808l.245.002.244.002c.006-.606.01-1.22-.012-1.83l-.244.009Zm.012 1.82-.245-.003c-.002.274-.006.551-.006.827h.489c0-.273.003-.546.006-.823l-.244-.002Zm-.006.824h-.245v5.23h.489v-5.23h-.244Zm0 5.23-.245.001c0 .174.005.465.011.816l.244-.004.245-.004a60.9 60.9 0 0 1-.011-.809h-.244Zm.01.813-.244.005c.01.616.025 1.422.022 2.13-.001.353-.006.68-.018.944-.012.273-.03.457-.051.54l.237.059.237.06c.034-.139.053-.371.065-.637.012-.274.018-.608.019-.965.002-.713-.012-1.524-.022-2.14l-.245.004Zm-.054 3.678-.237-.06a.607.607 0 0 1-.132.269c-.059.067-.141.128-.271.204l.124.211.124.21c.145-.085.28-.177.39-.302.114-.13.19-.282.239-.473l-.237-.059Zm-.516.624-.03-.242c-.231.029-.474.035-.73.04l.006.245.005.244c.252-.005.52-.012.78-.045l-.031-.242Zm-.754.043-.005-.244c-.13.002-.268.005-.402.012l.013.244.012.244c.125-.007.253-.009.387-.012l-.005-.244Zm-.394.012-.013-.244c-1.223.062-2.555.188-3.723.728l.103.222.102.221c1.076-.497 2.324-.621 3.543-.683l-.012-.244Zm-3.633.706-.103-.222a4.895 4.895 0 0 0-.91.53l.148.195.147.194a4.42 4.42 0 0 1 .82-.476l-.102-.221Zm-.865.503-.148-.195a6.23 6.23 0 0 0-.469.416l.168.177.168.178c.164-.155.306-.289.428-.382l-.147-.194Zm-.449.398-.168-.177a6.467 6.467 0 0 1-.614.535c-.209.152-.387.234-.535.242l.014.244.013.244c.29-.016.563-.166.796-.335.236-.171.464-.388.662-.576l-.168-.177Zm-1.303.844-.014-.244c-.178.01-.37-.06-.59-.203a5.56 5.56 0 0 1-.658-.537l-.163.181-.164.181c.218.197.462.418.72.585.257.167.555.299.882.28l-.013-.243Zm-1.425-.803.163-.181c-.205-.186-.424-.383-.637-.518l-.13.207-.131.206c.17.108.357.274.571.468l.164-.182ZM7.11 25.5l.13-.207a7.097 7.097 0 0 0-1.57-.718l-.075.233-.076.232a6.607 6.607 0 0 1 1.46.667l.131-.207Zm-1.515-.692.076-.233c-.887-.29-1.822-.437-2.742-.492l-.014.244-.015.244c.89.053 1.781.195 2.619.469l.076-.232Zm-2.68-.48.015-.245c-.146-.009-.296-.008-.435-.007l.001.244v.245c.145 0 .277-.002.404.006l.015-.244Zm-.419-.008v-.244c-.269 0-.506 0-.723-.047l-.052.238-.053.24c.279.06.572.058.829.058l-.001-.245Zm-.775-.053.053-.238c-.152-.034-.251-.107-.408-.245l-.162.183-.162.183c.167.148.346.294.626.356l.053-.239Zm-.517-.3.225-.095c-.1-.24-.136-.551-.15-.852l-.245.012-.244.012c.015.308.052.693.189 1.017l.225-.094Zm-.17-.935.244-.012a26.994 26.994 0 0 1-.012-1.626l-.245-.003-.244-.003c-.007.546-.014 1.104.013 1.656l.244-.012Zm-.013-1.641.245.003c.003-.244.006-.488.006-.73l-.245-.001H.784c0 .24-.003.482-.006.724l.244.004Zm.006-.728h.245l.004-4.626H.788l-.004 4.626h.244Zm.004-4.626h.245l-.004-3.501H.784l.004 3.501h.244Zm-.004-3.5.245-.001c0-.159-.008-.33-.014-.5l-.244.01-.245.01c.007.173.014.333.014.48h.244Zm-.013-.491.244-.01c-.019-.476-.035-.943.056-1.298l-.237-.06-.237-.06c-.111.437-.088.983-.07 1.437l.244-.01Zm.063-1.368.237.06c.031-.122.087-.175.259-.285l-.132-.206-.131-.206c-.193.123-.39.263-.47.576l.237.06Zm.364-.431.016.244c1.966-.128 4.11.282 5.827 1.237l.12-.213.118-.214c-1.81-1.007-4.049-1.43-6.096-1.298l.015.244Zm5.962 1.268-.119.213c.569.316 1.083.705 1.618 1.11l.148-.195.147-.195c-.53-.402-1.072-.812-1.675-1.147l-.119.214Zm1.647 1.127.146.196c.3-.223.599-.444.903-.652l-.138-.202-.138-.201c-.313.214-.62.44-.92.664l.147.196Zm.91-.658.139.202c1.616-1.104 3.545-1.653 5.507-1.702l-.006-.244-.007-.244c-2.042.05-4.066.622-5.77 1.787l.138.201Zm5.64-1.744.006.244c.086-.002.177-.007.263-.011l-.013-.245-.013-.244c-.09.005-.172.01-.25.012l.007.244Zm.025 1.56-.002-.245c-.22.002-.51-.014-.771.021l.032.242.032.242c.22-.029.444-.014.711-.016l-.002-.244Zm-.741.018-.022-.243a10.38 10.38 0 0 0-2.703.61c-.896.342-1.745.84-2.34 1.538l.186.159.186.158c.523-.614 1.29-1.073 2.142-1.398a9.892 9.892 0 0 1 2.573-.58l-.022-.244Zm-4.88 2.064-.186-.158c-.051.06-.1.123-.145.184l.195.147.196.146a3.57 3.57 0 0 1 .128-.162l-.187-.157Zm-.136.173h-.244l-.003 10.3h.489l.002-10.3H9.87Zm-.003 10.3.144.198c.188-.137.362-.27.545-.396l-.139-.201-.14-.2c-.188.13-.376.273-.553.402l.143.197Zm.55-.399.125.21c1.481-.885 3.346-1.043 5.11-1.17l-.017-.243-.018-.244c-1.743.125-3.729.283-5.325 1.237l.125.21Zm5.218-1.203h.244c0-3.644.049-7.307-.008-10.957l-.244.004-.244.003c.056 3.646.008 7.297.007 10.95h.245ZM2.5 11.802l-.244-.006c-.038 1.528-.03 3.062-.022 4.589l.244-.001.245-.002c-.008-1.528-.016-3.054.021-4.574l-.244-.006Zm-.022 4.582-.244.001c.003.626.007 1.251.007 1.876h.489c0-.626-.004-1.253-.007-1.879l-.245.002Zm.007 1.877h-.244c0 .457-.006.919-.012 1.382l.245.003.244.003c.006-.463.012-.927.012-1.388h-.245Zm-.011 1.385H2.23v.004h.489v-.004h-.244Zm0 .004-.245-.003c-.013 1.025-.026 2.065.026 3.088l.244-.012.244-.013c-.05-1.005-.038-2.03-.025-3.057l-.244-.003Zm.025 3.073-.021.243c2.036.175 4 .375 5.625 1.567l.145-.197.145-.197c-1.752-1.285-3.856-1.486-5.873-1.66l-.021.244Zm5.749 1.613h.244c-.01-3.418.01-6.835.057-10.252l-.244-.003-.245-.003c-.048 3.419-.066 6.839-.056 10.259l.244-.001Zm.057-10.255.177-.168c-1.377-1.454-3.517-2.303-5.489-2.358l-.007.244-.007.244c1.859.052 3.871.858 5.148 2.206l.178-.168Zm-5.319-2.282.006-.244a9.139 9.139 0 0 0-.5.002l.008.245.008.244c.158-.005.316-.006.473-.003l.005-.244ZM23.36 11.353c1.958-.034 5.255-.092 6.34.324.83.318 1.535.943 1.896 1.76.356.805.381 1.871.058 2.691-.344.876-.977 1.246-1.794 1.599l.19.067c.176.06.353.122.517.203a3.236 3.236 0 0 1 1.608 1.838c.332.98.205 2.078-.245 2.995a3.607 3.607 0 0 1-1.388 1.35c-.512.287-1.019.402-1.597.478-.878.117-5.976.194-6.616-.024-.086-.03-.172-.062-.212-.148-.094-.204-.107-.517-.117-.758l-.003-.067c-.061-1.37-.041-2.759-.021-4.141.009-.615.017-1.23.018-1.84.002-.589-.006-1.181-.013-1.774-.015-1.158-.03-2.319.023-3.463.012-.248.033-.525.122-.758.069-.178.156-.24.323-.319.246-.001.557-.007.911-.013Zm4.894 7.437c-.713-.17-2.966-.052-3.823-.052v3.91c1.007.003 3.198.13 4.06-.091.319-.082.572-.21.814-.432.388-.457.59-.919.531-1.532a1.942 1.942 0 0 0-.709-1.36 2.178 2.178 0 0 0-.873-.443Zm-3.112-5.454c-.272.009-.516.016-.712.017l.002 3.48c.228 0 .507.008.81.016 1.004.026 2.285.058 2.953-.113.312-.08.57-.205.819-.408.327-.396.505-.848.463-1.368a1.682 1.682 0 0 0-.62-1.188c-.688-.534-2.49-.475-3.715-.436ZM43.554 19.138a5.159 5.159 0 1 0-10.227 1.363 5.159 5.159 0 0 0 10.227-1.363Zm-5.466-2.247c.573-.028 1.079-.018 1.587.292.571.348.926.942 1.08 1.58.22.905.168 2.151-.34 2.956-.365.577-.873.832-1.517.974-.617.062-1.23.004-1.759-.351-.558-.374-.883-.985-1.009-1.632-.179-.92-.123-2.113.432-2.9.381-.54.89-.806 1.526-.918ZM54.624 19.107a5.152 5.152 0 1 0-10.207 1.41 5.152 5.152 0 0 0 10.207-1.41Zm-5.506-2.215c.557-.046 1.097-.029 1.598.252.596.334.96.92 1.129 1.566.243.928.195 2.126-.314 2.963-.36.594-.873.87-1.53 1.017-.615.08-1.221.011-1.75-.336-.564-.37-.892-.975-1.03-1.623-.193-.917-.13-2.097.405-2.894.362-.54.867-.816 1.492-.945ZM56.681 10.936c.039-.004.077-.007.116-.008.383-.014 1.236-.088 1.496.263.111.15.127.462.141.646.058.778.011 1.592.011 2.374l.001 4.603c.545-.648 1.171-1.24 1.745-1.863.567-.614 1.112-1.322 1.74-1.87.15-.13.263-.199.457-.251.401-.11 1.855-.19 2.16.027.079.056.145.163.14.262-.028.438-2.922 3.291-3.427 3.79a408.803 408.803 0 0 0 2.809 4.03c.235.341.903 1.073.817 1.496a.341.341 0 0 1-.173.217c-.434.24-2.1.082-2.621-.088-.372-.374-.675-.914-.974-1.349l-1.812-2.64-.865.752c-.004.692.204 2.73-.242 3.194-.199.209-.46.225-.73.227-.415.004-1.216.073-1.52-.223-.077-.797-.051-1.605-.052-2.405l-.001-3.419v-4.684c0-.832-.03-1.677.009-2.509.005-.111.008-.208.075-.304.16-.23.448-.234.7-.268ZM74.289 14.74c.546-.012 1.634-.133 2.126.07.184.077.268.265.35.437.35.73.58 1.57.861 2.332.49 1.326 1.018 2.637 1.515 3.96.289-.747 2.284-6.308 2.61-6.585.161-.136.465-.165.665-.171.42-.012 1.207-.105 1.525.189.08.189.07.293.024.496-.164.709-.511 1.446-.766 2.13l-1.636 4.399-1.107 2.998c-.222.605-.418 1.253-.707 1.828-.16.321-.356.622-.601.884-.588.63-1.357.9-2.204.93-.363.013-.986.08-1.266-.18-.179-.36-.194-1.204-.079-1.594.113-.38.944-.308 1.28-.496.539-.304.686-.902.825-1.457-.433-1.31-3.696-9.323-3.664-9.776.013-.197.106-.28.249-.394ZM68.928 14.701c.274-.042.575-.03.853-.027 1.106.01 2.343.244 3.14 1.076.366.382.633.96.592 1.499-.006.091-.032.223-.11.279-.397.28-1.482.225-1.954.162-.419-.056-.386-.337-.644-.643-.285-.337-.7-.503-1.134-.535-.482-.035-1.091.122-1.45.46-.158.15-.325.535-.3.75.112.94 2.759 1.06 3.52 1.252.647.163 1.312.405 1.828.84.49.412.711.974.761 1.603.061.774-.165 1.516-.679 2.103-.893 1.019-2.195 1.318-3.49 1.413-.995.034-2.066-.103-2.962-.562-.65-.334-1.236-.856-1.452-1.575-.09-.294-.148-.638.008-.916.453-.355 1.69-.216 2.238-.196.186.282.299.613.552.846.427.393 1.056.512 1.62.484.46-.023.951-.154 1.26-.52a.99.99 0 0 0 .244-.727c-.102-1.065-2.727-1.061-3.539-1.249-.586-.135-1.184-.373-1.66-.75-.5-.396-.82-.93-.88-1.571a3.002 3.002 0 0 1 .671-2.164c.753-.912 1.834-1.221 2.967-1.332Z"/></g></g><defs><clipPath id="a"><path fill="#fff" d="M.5.84h84v36H.5z"/></clipPath><clipPath id="b"><path fill="#fff" d="M1 8.778h83v21H1z"/></clipPath></defs></svg>